PathFileType	4	(X/Y/Z)	AB08\squats_1.trc
DataRate	CameraRate	NumFrames	NumMarkers	Units	OrigDataRate	OrigDataStartFrame	OrigNumFrames
200.000000	200.000000	4	35	mm	200.000000	277	317
Frame#	Time	C7			LSHO			STRN			LASI			RASI			RPSI			LGTR			RGTR			LTHC			LTHL			LTHR			LKNE			LMKNE			LSHC			LSHL			LSHR			LANK			LMANK			LMT1			LMT5			LCAL			RTHC			RTHL			RTHR			RKNE			RMKNE			RSHC			RSHL			RSHR			RANK			RMANK			RMT1			RMT5			RCAL			LPSI			
		X1	Y1	Z1	X2	Y2	Z2	X3	Y3	Z3	X4	Y4	Z4	X5	Y5	Z5	X6	Y6	Z6	X7	Y7	Z7	X8	Y8	Z8	X9	Y9	Z9	X10	Y10	Z10	X11	Y11	Z11	X12	Y12	Z12	X13	Y13	Z13	X14	Y14	Z14	X15	Y15	Z15	X16	Y16	Z16	X17	Y17	Z17	X18	Y18	Z18	X19	Y19	Z19	X20	Y20	Z20	X21	Y21	Z21	X22	Y22	Z22	X23	Y23	Z23	X24	Y24	Z24	X25	Y25	Z25	X26	Y26	Z26	X27	Y27	Z27	X28	Y28	Z28	X29	Y29	Z29	X30	Y30	Z30	X31	Y31	Z31	X32	Y32	Z32	X33	Y33	Z33	X34	Y34	Z34	X35	Y35	Z35	

278	31.665	-3458.44518464189	1424.987010683846	2535.732829781576	-3555.410448367833	1375.022040910116	2683.233625059309	-3590.3805887764	1118.706609902299	2541.071295014026	-3445.090307195795	882.757790596004	2627.677361452887	-3441.772325920077	887.8235235178859	2405.745007743791	-3228.66388433683	962.6833590023555	2465.295053518035	-3321.390969183883	885.9429393770747	2721.959573261126	-3369.495041626903	868.7107636636724	2323.681796892078	-3508.509998223101	719.586724547381	2726.175880143452	-3354.744204315585	609.5794767138084	2715.274908565788	-3466.144032909956	565.1871649011183	2762.333020995984	-3479.159089316737	463.7437752988267	2763.468370651163	-3528.86668575393	423.6411899433275	2663.699759442381	-3396.77655263863	413.0049726511192	2717.541283813619	-3497.606062414968	325.17541121786	2680.829398066517	-3394.389054130076	243.2837666321331	2778.758495352509	-3351.334022812022	95.35301391889901	2761.4538787273	-3393.414734257988	103.6009776928188	2671.722674141379	-3507.159534008429	53.72916843328979	2715.987445437761	-3468.271490593742	49.87185791822807	2812.207104809835	-3292.813750185021	82.90295187491618	2695.02810284728	-3462.178097862782	619.697533576241	2285.832008657613	-3339.214791383099	625.8922302186651	2348.25216223952	-3531.013633793029	703.9844161287988	2415.199505569237	-3529.623993054536	472.6029504230057	2290.655714864452	-3539.728266128858	439.947082025188	2407.434892517732	-3416.330790325821	258.3583441022652	2258.515773743791	-3391.666050510981	372.0304161369893	2328.193777395965	-3534.018178282155	321.172482371384	2331.445567538776	-3370.697206199518	104.1912063289411	2265.866012554601	-3414.440182027532	107.8111903337861	2357.222211725501	-3532.593263136277	57.88284478181242	2304.092163015737	-3481.203075432578	53.46762614664311	2222.156816800536	-3303.553333003284	88.94967103733957	2327.455292750286	-3223.091716180173	963.1598831368966	2576.110501246916	
279	31.67	-3456.405338287721	1429.446531037233	2535.73197982799	-3553.438089030626	1380.116507164299	2683.44980122382	-3590.197538369038	1124.038371991667	2540.894760026702	-3447.136179592332	886.6506552603456	2627.583152289626	-3443.543111756297	891.6534517807966	2405.642890681125	-3230.274050857062	965.6566421877382	2465.479691216063	-3323.387539737238	888.87833374565	2721.794377031953	-3370.985128203499	871.5984762631105	2323.78420494832	-3509.381530023074	720.6450468349609	2725.860331595356	-3354.545454061052	612.0507347735455	2714.657772653274	-3465.422132131334	566.5604905373035	2761.60551464193	-3477.612287319175	464.4933496335281	2762.716168372855	-3527.290864387494	424.3143726419215	2662.91428901691	-3395.297351997665	413.3631465530863	2716.895487204084	-3496.418535400524	325.7511362946818	2680.272083341128	-3393.63201611734	243.5485318958416	2778.423904657083	-3351.225505632109	95.33083012794725	2761.442829043722	-3393.25986101673	103.5451952948074	2671.741200153467	-3507.125580213552	53.73264579938749	2715.952460781503	-3468.268571755319	49.90537016337301	2812.171785751547	-3292.76271721442	82.86475301631899	2695.033953358648	-3461.668057623639	621.5676072847313	2285.931221354836	-3339.084753391407	628.8078845845919	2348.672992463544	-3531.602319044229	705.4449264565425	2414.979316678533	-3527.829307106855	473.5561404569555	2290.782197464318	-3538.124247494524	440.8326993975012	2407.574905465445	-3415.380764113897	258.6844398493207	2258.572920347431	-3390.208191801054	372.2850823399026	2328.338792612464	-3532.753313116055	322.0534804713443	2331.475197017259	-3370.605360421992	104.1628765777515	2265.886696361457	-3414.357630911084	107.932449067364	2357.180928996165	-3532.589453857737	57.90685922869973	2304.095863453849	-3481.196877948199	53.46427157154928	2222.156559417567	-3303.522573934179	88.93778997064648	2327.445226177959	-3224.807470682814	966.0838191970356	2576.259989331572	
280	31.675	-3454.371603686427	1433.824705025412	2535.728450473818	-3551.465545041634	1385.11462342039	2683.66489892684	-3590.0033689949	1129.291697373899	2540.712721224274	-3449.186418650301	890.4914838693647	2627.480806918552	-3445.321153236124	895.4459071807395	2405.529504706939	-3231.888923549642	968.573345342064	2465.66417574903	-3325.394586799775	891.7749075801413	2721.629308894401	-3372.479294649994	874.4460154284895	2323.874086034753	-3510.241197664488	721.6874154999198	2725.520864595261	-3354.337551145509	614.5150116476276	2714.043797215732	-3464.686079808465	567.9347500844304	2760.872819155677	-3476.046464886458	465.2412807841191	2761.95779894236	-3525.695564280998	424.9846798735867	2662.120713619977	-3393.800295288389	413.7168462587402	2716.244254551581	-3495.216512938475	326.3276122354252	2679.709466418585	-3392.864208616678	243.8135551101382	2778.084466847868	-3351.117528826906	95.3085794033432	2761.432127007459	-3393.103028623005	103.4880441059485	2671.760073571038	-3507.091938807637	53.73619151356567	2715.918459722361	-3468.265076748031	49.93714698567118	2812.13670084182	-3292.711506794127	82.82617727010583	2695.040618170915	-3461.153495125615	623.4249782134023	2286.040212751329	-3338.953620513984	631.7044424932132	2349.105006969306	-3532.178193786493	706.8859068254764	2414.775157817214	-3526.02503592014	474.5047802603219	2290.928471685992	-3536.505776807438	441.7104199785593	2407.733568552841	-3414.427903352574	259.0146928572935	2258.637452732467	-3388.743348915157	372.5352756911066	2328.497860769487	-3531.479889619671	322.932435513843	2331.517941979273	-3370.513005239382	104.1248817838	2265.913109830746	-3414.278398238973	108.0531027611104	2357.139601795541	-3532.585502205301	57.93078300607397	2304.09915165432	-3481.191676223844	53.46103423690002	2222.156561641003	-3303.492697620617	88.92736687136575	2327.434147091093	-3226.530007326649	968.957514949887	2576.408550611004	
281	31.68	-3452.343602357485	1438.11886432571	2535.721832146906	-3549.493293192327	1390.013913495209	2683.877828940224	-3589.79853321819	1134.464884464132	2540.525332755008	-3451.240025647732	894.277643834165	2627.371312436872	-3447.105416381519	899.1946796654029	2405.405754294492	-3233.507653457461	971.430612930045	2465.848322687633	-3327.410719459381	894.6294704756317	2721.464267180531	-3373.977411307585	877.2507000026749	2323.952116740011	-3511.088364058229	722.7131522588844	2725.158000716857	-3354.120916484367	616.9709680839346	2713.433203330433	-3463.936738266025	569.3090426889323	2760.134816068073	-3474.462303301882	465.9872238691337	2761.193399826215	-3524.081527821722	425.6515549173701	2661.319100030968	-3392.286025906891	414.0654327931211	2715.58749619063	-3494.000704361102	326.9039723821998	2679.141646549583	-3392.086002205412	244.0787929858795	2777.74037459223	-3351.010381068684	95.28677902149113	2761.421849655637	-3392.94456074933	103.4296950127683	2671.779080783469	-3507.058940620941	53.74003242531068	2715.885636606531	-3468.261126645303	49.96717495480727	2812.102141105739	-3292.659993078847	82.78714397750205	2695.04827092113	-3460.635475308879	625.2681848809849	2286.158535172214	-3338.82277752443	634.5805476456123	2349.54760470692	-3532.741811846806	708.3055682479196	2414.587163344946	-3524.211701716563	475.447871350483	2291.094720025661	-3534.87325035979	442.5795397587034	2407.91069758857	-3413.472867669891	259.3491292292283	2258.70973127341	-3387.272178289185	372.7803079435763	2328.671393205869	-3530.19842403201	323.8087367798324	2331.573827289871	-3370.420177236123	104.078386634145	2265.944507727904	-3414.202487749964	108.1727940242498	2357.097938827665	-3532.581485210097	57.95463770653433	2304.101825547682	-3481.187449068875	53.45784917032257	2222.156619203718	-3303.463929982079	88.91851114445495	2327.422056994966	-3228.258136075948	971.7782039144888	2576.556137766603	
